# xmcd
#
# Track frame offsets:
#	150
#	18018
#	41231
#	67922
#	98172
#	134453
#	160111
#	196331
#	220473
#
# Disc length: 4744 seconds
#
# Revision: 0
# Processed by: cddbd v1.5.1PL2 Copyright (c) Steve Scherf et al.
# Submitted via: dBpowerAMP V4.0
#
DISCID=78128609
DTITLE=Rory Gallagher - Live 81-82
DYEAR=1900
DGENRE=
TTITLE0=Shinkicker
TTITLE1=Hellcat
TTITLE2=Follow me
TTITLE3=Blues Guitar solo
TTITLE4=Ghost Blues
TTITLE5=Sugar Mama
TTITLE6=Just A Little Bit
TTITLE7=Philby
TTITLE8=Rockpalast Jam
EXTD=
EXTT0=
EXTT1=
EXTT2=
EXTT3=
EXTT4=
EXTT5=
EXTT6=
EXTT7=
EXTT8=
PLAYORDER=
